#!OML:ASF E:\Steps\Project 1\Capture day 1\Session 2\Subject.ASF
:FULLY-SPECIFIED
:DEGREES
830
root 3.51938 15.8581 -12.5065 17.5926 -81.1732 2.73318
lowerback -27.8907 -4.55262 -2.35348
upperback 0.699022 -5.73741 2.4374
thorax 16.1839 -2.86538 1.65778
lowerneck 17.3887 -0.0807076 -9.49159
upperneck -6.47812 -1.05784 11.5752
head -4.65681 -1.08472 5.31298
rclavicle 1.02374e-014 -2.22639e-014
rhumerus -43.8058 -24.727 -71.3989
rradius 32.3431
rwrist -0.955931
rhand -6.65248 -53.426
rfingers 7.12502
rthumb 19.205 277.502
lclavicle 1.02374e-014 -2.22639e-014
lhumerus -28.4857 -3.04537 84.6589
lradius 23.2004
lwrist -4.43105
lhand -17.1627 -11.8424
lfingers 7.12502
lthumb 9.07834 17.9422
rfemur -32.4452 5.5627 21.4924
rtibia 18.8076
rfoot -14.2703 -8.0449
rtoes -30.362
lfemur -30.1872 0.487763 -18.8925
ltibia 70.6217
lfoot 2.64033 8.60084
ltoes -17.9679
831
root 3.38722 15.8804 -12.5155 16.9238 -81.4223 3.0615
lowerback -27.7249 -4.42192 -2.51061
upperback 0.875655 -5.4981 2.34668
thorax 16.3016 -2.76841 1.74646
lowerneck 17.3713 -0.110495 -10.0196
upperneck -6.26828 -1.20086 11.8749
head -4.56964 -1.16015 5.50603
rclavicle 1.66482e-014 -3.77691e-014
rhumerus -42.9776 -23.7761 -72.2902
rradius 33.1427
rwrist -1.78898
rhand -6.41535 -53.4241
rfingers 7.12502
rthumb 19.433 277.527
lclavicle 1.66482e-014 -3.77691e-014
lhumerus -28.6695 -1.58225 84.1138
lradius 22.5366
lwrist -5.6482
lhand -18.935 -11.3221
lfingers 7.12502
lthumb 7.36792 18.5296
rfemur -31.2644 5.84304 21.6784
rtibia 18.3194
rfoot -14.4154 -8.30952
rtoes -31.7569
lfemur -31.0706 1.147 -19.3496
ltibia 71.1274
lfoot 3.40595 8.22773
ltoes -39.4274
832
root 3.25261 15.8907 -12.5239 16.0891 -81.7757 3.9515
lowerback -28.0322 -4.3397 -2.83148
upperback 0.988321 -5.26652 2.28756
thorax 16.592 -2.68792 1.93019
lowerneck 17.0138 -0.248382 -11.1759
upperneck -5.23271 -1.64924 12.3032
head -4.13225 -1.371 5.84515
rclavicle -1.2921e-015 1.07344e-014
rhumerus -42.1357 -22.8069 -73.1644
rradius 33.8752
rwrist -2.37398
rhand -5.98073 -53.6432
rfingers 7.12502
rthumb 19.8509 277.351
lclavicle -1.2921e-015 1.07344e-014
lhumerus -28.6428 -2.18278 83.6642
lradius 22.0464
lwrist -4.45592
lhand -18.3732 -11.337
lfingers 7.12502
lthumb 7.91014 18.495
rfemur -30.6342 5.84749 21.7678
rtibia 18.018
rfoot -14.6131 -8.11058
rtoes -32.1397
lfemur -32.2915 1.2218 -19.5681
ltibia 71.5537
lfoot 1.98319 8.57086
ltoes -35.4584
833
root 3.11376 15.9066 -12.5355 16.9065 -81.8476 3.12211
lowerback -28.3084 -4.30718 -2.93994
upperback 1.09085 -5.18579 2.31517
thorax 16.8572 -2.6615 2.03487
lowerneck 16.4245 -0.351524 -12.6867
upperneck -3.6789 -2.12519 12.8673
head -3.49004 -1.60077 6.27196
rclavicle -4.52235e-015 -3.83654e-014
rhumerus -41.3557 -21.8271 -73.9705
rradius 34.6095
rwrist -3.04477
rhand -6.36128 -53.6459
rfingers 7.12502
rthumb 19.485 277.31
lclavicle -4.52235e-015 -3.83654e-014
lhumerus -28.9524 -1.78911 83.3087
lradius 21.7017
lwrist -4.1517
lhand -18.1554 -10.8541
lfingers 7.12502
lthumb 8.12039 18.9699
rfemur -29.7285 5.64068 22.1988
rtibia 17.3986
rfoot -14.8476 -7.68481
rtoes -31.4544
lfemur -33.5037 1.22404 -19.3336
ltibia 71.8457
lfoot 0.478474 8.32762
ltoes -27.9472
834
root 3.01082 15.9297 -12.5512 10.7004 -82.4001 8.79454
lowerback -27.4079 -4.25732 -3.91
upperback 1.15735 -4.77247 2.05959
thorax 16.5129 -2.554 2.50108
lowerneck 16.7774 -0.513437 -13.6259
upperneck -3.47236 -2.5645 13.3484
head -3.40938 -1.84253 6.61919
rclavicle -1.635e-014 5.14852e-014
rhumerus -40.7358 -20.8414 -74.5994
rradius 35.4421
rwrist -3.98893
rhand -6.98733 -53.6372
rfingers 7.12502
rthumb 18.883 277.259
lclavicle -1.635e-014 5.14852e-014
lhumerus -29.3906 -0.689422 82.9899
lradius 21.3027
lwrist -4.66877
lhand -18.5073 -10.3086
lfingers 7.12502
lthumb 7.78072 19.5282
rfemur -28.5873 5.93993 21.4361
rtibia 17.0921
rfoot -15.1001 -7.63701
rtoes -30.8299
lfemur -34.1609 1.51189 -20.2424
ltibia 72.0597
lfoot -0.372343 7.96663
ltoes -28.0893
835
root 2.87804 15.9336 -12.5465 1.33488 -82.9364 17.7128
lowerback -27.087 -4.15582 -4.86008
upperback 1.34434 -4.26142 1.63214
thorax 16.5553 -2.39107 2.77091
lowerneck 16.455 -0.498156 -14.0193
upperneck -2.9173 -2.61743 13.5629
head -3.1782 -1.8704 6.74045
rclavicle -4.20927e-014 2.06736e-014
rhumerus -40.1662 -20.1149 -75.1235
rradius 36.266
rwrist -4.64078
rhand -7.35712 -53.714
rfingers 7.12502
rthumb 18.5273 277.148
lclavicle -4.20927e-014 2.06736e-014
lhumerus -29.7471 1.16336 82.332
lradius 20.7935
lwrist -5.82138
lhand -19.1016 -10.372
lfingers 7.12502
lthumb 7.20711 19.4853
rfemur -27.2593 6.22065 20.3596
rtibia 16.5595
rfoot -15.2402 -7.67582
rtoes -31.7167
lfemur -34.4088 1.41697 -21.544
ltibia 71.685
lfoot -1.53103 7.77179
ltoes -23.9716
836
root 2.73757 15.9394 -12.5439 -0.422577 -83.1864 19.371
lowerback -27.3215 -3.99359 -4.93059
upperback 1.46466 -3.98226 1.47578
thorax 16.7782 -2.26949 2.73785
lowerneck 17.4024 -0.450131 -12.8873
upperneck -4.41749 -2.32158 13.3128
head -3.83728 -1.746 6.50325
rclavicle 1.37161e-014 -1.23246e-014
rhumerus -39.5902 -19.4875 -75.619
rradius 36.9426
rwrist -4.94976
rhand -7.55051 -53.5045
rfingers 7.12502
rthumb 18.3413 277.34
lclavicle 1.37161e-014 -1.23246e-014
lhumerus -30.0754 3.66105 81.3029
lradius 20.1045
lwrist -7.58113
lhand -20.1689 -10.5873
lfingers 7.12502
lthumb 6.17677 19.3027
rfemur -26.2137 6.5449 20.3412
rtibia 15.8865
rfoot -15.4702 -7.77924
rtoes -31.8653
lfemur -35.1792 1.04191 -21.6622
ltibia 71.2558
lfoot -2.9534 7.30238
ltoes -13.651
